<svg width="512" height="512" fill="none" xmlns="http://www.w3.org/2000/svg"><path d="M487.862 473.44H25.138C15.672 473.44 8 465.767 8 456.302V70.698c0-9.465 7.672-17.138 17.138-17.138h462.724c9.466 0 17.138 7.673 17.138 17.138v385.603c0 9.466-7.672 17.139-17.138 17.139Z" fill="#E4EAF8"/><path d="M487.862 473.44H256.5V96.405H505v359.897c0 9.465-7.672 17.138-17.138 17.138Z" fill="#5B5D6E"/><path d="M505 96.405H8V70.698c0-9.465 7.672-17.138 17.138-17.138h462.724c9.466 0 17.138 7.673 17.138 17.138v25.707Z" fill="#D5DCED"/><path d="M33.707 87.836h-8.57a8.57 8.57 0 0 1-8.569-8.57v-8.569a8.57 8.57 0 0 1 8.57-8.57h8.57a8.57 8.57 0 0 1 8.569 8.57v8.57a8.57 8.57 0 0 1-8.57 8.569Z" fill="#E4EAF8"/><path d="M419.31 87.836h-8.569a8.57 8.57 0 0 1-8.569-8.57v-8.569a8.57 8.57 0 0 1 8.569-8.57h8.569a8.57 8.57 0 0 1 8.57 8.57v8.57a8.57 8.57 0 0 1-8.57 8.569Z" fill="#FF5050"/><path d="M453.586 87.836h-8.57a8.57 8.57 0 0 1-8.569-8.57v-8.569a8.57 8.57 0 0 1 8.569-8.57h8.57a8.57 8.57 0 0 1 8.569 8.57v8.57a8.569 8.569 0 0 1-8.569 8.569Z" fill="#FFF082"/><path d="M487.862 87.836h-8.569a8.57 8.57 0 0 1-8.569-8.57v-8.569a8.57 8.57 0 0 1 8.569-8.57h8.569a8.57 8.57 0 0 1 8.57 8.57v8.57a8.57 8.57 0 0 1-8.57 8.569Z" fill="#A0FFB4"/><path d="m148.653 161.407-58 58a8.567 8.567 0 0 0-.524 11.544L256.5 430.595V156.388h-95.729a17.141 17.141 0 0 0-12.118 5.019Z" fill="#00C3FF"/><path d="m256.5 156.388-77.12 68.552h77.12v-68.552Z" fill="#80E1FF"/><path d="m179.38 224.94-25.21-67.225a17.117 17.117 0 0 0-5.514 3.689l-58 58.002c-1.532 1.532-2.345 3.513-2.47 5.533l91.194.001ZM179.38 224.94l77.12 205.655V224.94h-77.12Z" fill="#00AAF0"/><path d="M256.5 490.578a8.568 8.568 0 0 1-8.569-8.57V44.992a8.567 8.567 0 0 1 8.569-8.57 8.567 8.567 0 0 1 8.569 8.57v437.017a8.568 8.568 0 0 1-8.569 8.569Z" fill="#AFB9D2"/><path d="M316.483 173.526h-17.138a8.568 8.568 0 0 1-8.569-8.57 8.566 8.566 0 0 1 8.569-8.569h17.138a8.567 8.567 0 0 1 8.569 8.569 8.567 8.567 0 0 1-8.569 8.57ZM316.483 242.078h-17.138a8.568 8.568 0 0 1-8.569-8.57 8.566 8.566 0 0 1 8.569-8.569h17.138a8.567 8.567 0 0 1 8.569 8.569 8.567 8.567 0 0 1-8.569 8.57Z" fill="#FF5050"/><path d="M342.19 207.802h-17.138a8.567 8.567 0 0 1-8.569-8.569 8.567 8.567 0 0 1 8.569-8.57h17.138a8.567 8.567 0 0 1 8.569 8.57 8.567 8.567 0 0 1-8.569 8.569Z" fill="#A0FFB4"/><path d="M462.155 173.526H350.758a8.568 8.568 0 0 1-8.569-8.57 8.566 8.566 0 0 1 8.569-8.569h111.397a8.568 8.568 0 0 1 8.57 8.569 8.568 8.568 0 0 1-8.57 8.57Z" fill="#fff"/><path d="M462.155 242.078H350.758a8.568 8.568 0 0 1-8.569-8.57 8.566 8.566 0 0 1 8.569-8.569h111.397a8.568 8.568 0 0 1 8.57 8.569 8.568 8.568 0 0 1-8.57 8.57Z" fill="#FFF082"/><path d="M462.155 207.802h-85.69a8.567 8.567 0 0 1-8.569-8.569 8.567 8.567 0 0 1 8.569-8.57h85.69a8.568 8.568 0 0 1 8.57 8.57 8.567 8.567 0 0 1-8.57 8.569Z" fill="#D5DCED"/><path d="M342.19 276.353h-17.138a8.567 8.567 0 0 1-8.569-8.569 8.567 8.567 0 0 1 8.569-8.57h17.138a8.568 8.568 0 0 1 8.569 8.57 8.567 8.567 0 0 1-8.569 8.569Z" fill="#A0FFB4"/><path d="M462.155 276.353h-85.69a8.567 8.567 0 0 1-8.569-8.569 8.567 8.567 0 0 1 8.569-8.57h85.69a8.569 8.569 0 0 1 8.57 8.57 8.567 8.567 0 0 1-8.57 8.569Z" fill="#D5DCED"/><path d="M316.483 310.63h-17.138a8.568 8.568 0 0 1-8.569-8.57 8.566 8.566 0 0 1 8.569-8.569h17.138a8.567 8.567 0 0 1 8.569 8.569 8.567 8.567 0 0 1-8.569 8.57ZM316.483 379.181h-17.138a8.568 8.568 0 0 1-8.569-8.57 8.566 8.566 0 0 1 8.569-8.569h17.138a8.567 8.567 0 0 1 8.569 8.569 8.567 8.567 0 0 1-8.569 8.57Z" fill="#FF5050"/><path d="M342.19 344.905h-17.138a8.567 8.567 0 0 1-8.569-8.569 8.567 8.567 0 0 1 8.569-8.57h17.138a8.568 8.568 0 0 1 8.569 8.57 8.567 8.567 0 0 1-8.569 8.569Z" fill="#A0FFB4"/><path d="M462.155 310.63H350.758a8.568 8.568 0 0 1-8.569-8.57 8.566 8.566 0 0 1 8.569-8.569h111.397a8.568 8.568 0 0 1 8.57 8.569 8.568 8.568 0 0 1-8.57 8.57Z" fill="#fff"/><path d="M462.155 379.181H350.758a8.568 8.568 0 0 1-8.569-8.57 8.566 8.566 0 0 1 8.569-8.569h111.397a8.568 8.568 0 0 1 8.57 8.569 8.568 8.568 0 0 1-8.57 8.57Z" fill="#FFF082"/><path d="M462.155 344.905h-85.69a8.567 8.567 0 0 1-8.569-8.569 8.567 8.567 0 0 1 8.569-8.57h85.69a8.569 8.569 0 0 1 8.57 8.57 8.567 8.567 0 0 1-8.57 8.569Z" fill="#D5DCED"/><path d="M342.19 413.457h-17.138a8.567 8.567 0 0 1-8.569-8.569 8.567 8.567 0 0 1 8.569-8.57h17.138a8.568 8.568 0 0 1 8.569 8.57 8.567 8.567 0 0 1-8.569 8.569Z" fill="#A0FFB4"/><path d="M462.155 413.457h-85.69a8.567 8.567 0 0 1-8.569-8.569 8.567 8.567 0 0 1 8.569-8.57h85.69a8.569 8.569 0 0 1 8.57 8.57 8.567 8.567 0 0 1-8.57 8.569Z" fill="#D5DCED"/><path d="M57.34 67.712h3.276l4.848 10.044h-.216l4.848-10.044h3.168V83H70.96V70.22h.372L66.1 81.188h-1.5L59.392 70.28h.228V83h-2.28V67.712Zm20.602 0h4.68c1.552 0 2.9.316 4.044.948a6.65 6.65 0 0 1 2.688 2.652c.64 1.144.96 2.492.96 4.044 0 1.544-.32 2.888-.96 4.032a6.73 6.73 0 0 1-2.688 2.664c-1.144.632-2.492.948-4.044.948h-4.68V67.712Zm2.28 2.052v11.22h2.4c1.088 0 2.02-.244 2.796-.732a4.88 4.88 0 0 0 1.812-2.004c.424-.848.636-1.812.636-2.892 0-1.08-.212-2.04-.636-2.88a4.8 4.8 0 0 0-1.812-1.992c-.776-.48-1.708-.72-2.796-.72h-2.4ZM94.067 83V67.712h5.916c1.144 0 2.092.184 2.844.552.76.368 1.328.856 1.704 1.464.376.608.564 1.276.564 2.004 0 .872-.244 1.624-.732 2.256-.48.632-1.184 1.068-2.112 1.308a3.789 3.789 0 0 1 1.608.66c.464.328.828.736 1.092 1.224a3.27 3.27 0 0 1 .408 1.62c0 .504-.088 1.004-.264 1.5a3.624 3.624 0 0 1-.876 1.356c-.408.408-.956.736-1.644.984-.688.24-1.548.36-2.58.36h-5.928Zm2.28-1.992h3.6c1.04 0 1.792-.216 2.256-.648.472-.432.708-.992.708-1.68 0-.696-.248-1.256-.744-1.68-.496-.424-1.236-.636-2.22-.636h-3.6v4.644Zm0-11.328v4.704h3.552c.888 0 1.584-.212 2.088-.636.512-.424.768-1.012.768-1.764 0-.712-.248-1.272-.744-1.68-.488-.416-1.184-.624-2.088-.624h-3.576Z" fill="#7E7E7E"/></svg>